<svg width="16" height="16" viewBox="0 0 16 16" fill="none" xmlns="http://www.w3.org/2000/svg">
<path d="M3.33333 12.6667L10 12.6667L10 7.33333C10 6.71333 10 6.33333 10 6.08L10 6L3.33333 6L3.33333 11.3333C3.33333 11.9533 3.33333 12 3.33333 12.5867L3.33333 12.6667ZM13.3333 11.3333L12.6667 11.3333L12.6667 4.66667C12.6667 4.04667 12.6667 3.66667 12.6667 3.41333L12.6667 3.33333L4.66667 3.33333L4.66667 2.66667C4.66667 2.27333 4.93333 2 5.33333 2L13.3333 2C13.7333 2 14 2.27333 14 2.66667L14 10.6667C14 11.0667 13.7333 11.3333 13.3333 11.3333ZM10.6667 14L2.66667 14C2.26667 14 2 13.7333 2 13.3333L2 5.33333C2 4.94 2.26667 4.66667 2.66667 4.66667L10.6667 4.66667C11.0667 4.66667 11.3333 4.94 11.3333 5.33333L11.3333 13.3333C11.3333 13.7333 11.0667 14 10.6667 14Z" fill="#8F07CF"/>
</svg>
